<svg width="150" height="135" viewBox="0 0 150 135" fill="none" xmlns="http://www.w3.org/2000/svg">
<g clip-path="url(#clip0_869_3560)">
<path d="M116.411 66.5268C116.826 67.5915 117.321 68.6721 117.464 69.8322C118.341 76.9433 114.203 85.9614 113.772 93.2315C112.616 96.3382 109.856 95.2655 108.955 96.4415C108.485 97.0612 107.584 102.361 107.026 103.918C106.26 106.024 105.191 107.684 104.218 109.655C103.612 109.742 103.892 108.86 103.876 108.439C103.445 96.6401 104.45 84.7378 104.569 72.9468L96.5391 61.9582C97.7671 61.847 98.8596 62.4429 99.9282 62.9355C101.515 63.6665 105.136 66.4951 106.228 66.7732C107.568 67.1148 107.663 65.6926 106.874 64.7232C105.303 62.7766 97.9107 59.4872 95.319 59.4951C83.5407 59.5348 69.9282 60.8379 58.2695 59.8844C55.2791 59.6381 52.8947 58.3987 49.6332 58.9151C47.7193 59.217 41.26 62.6971 39.8405 64.0399C38.9314 64.898 39.5135 66.217 40.6698 65.9707C42.9027 65.4939 47.3365 60.9809 50.4226 60.9253L42.0494 72.5972L43.0861 110.362C39.6411 106.485 37.9426 101.368 37.185 96.3064C36.5869 95.4483 33.2855 96.5209 32.1531 92.8898C32.1132 88.2974 25.941 69.6812 29.6092 66.8129C30.8453 65.8435 31.7065 67.5439 32.9266 66.8049C33.4928 64.0558 31.4434 59.5666 32.8549 57.1909C36.0686 55.2602 39.4418 53.6632 42.504 51.4623C50.1515 45.964 56.9856 37.6213 58.8198 28.198C60.8214 30.7008 62.3206 33.5771 64.4178 36.0243C73.9474 47.1399 86.2679 51.8278 100.574 53.6155C104.896 54.1558 110.861 53.0196 113.262 57.6836C114.96 60.9889 112.472 64.5723 113.006 66.2726C113.437 67.6313 115.797 66.1455 116.427 66.5427L116.411 66.5268Z" fill="#F7F5F2"/>
<path d="M114.354 55.3397C110.893 51.0968 105.67 52.0979 100.909 51.5099C86.1723 49.6904 73.0303 44.3829 64.1069 32.123C62.0654 29.3183 59.7369 25.9812 59.4896 22.4534L59.3142 5.54552C68.8517 2.36734 80.0798 2.67721 89.3302 6.64994C108.118 14.7225 115.104 36.2388 114.362 55.3397H114.354Z" fill="#F7F5F2"/>
<path d="M57.0494 6.25269C56.7225 12.5137 58.0542 19.323 57.3604 25.5363C57.1531 27.4035 56.0287 30.7406 55.311 32.5442C51.1563 43.0004 41.4514 50.5962 31.5471 55.3397C26.7384 34.8484 36.5949 13.1255 57.0494 6.25269Z" fill="#F7F5F2"/>
<path d="M49.362 70.3168C47.0813 76.3394 56.0128 79.8195 58.2137 73.7333C58.437 73.1136 58.2137 71.3815 58.9713 71.7072C59.9362 72.8673 61.2759 73.5744 62.2887 74.6709C65.7257 78.4052 68.7719 84.8808 72.1292 88.1861C72.3684 88.4165 72.4561 88.8297 72.9506 88.782L73.8357 88.2417C78.3812 82.4574 81.5072 75.3304 87.6316 71.008C88.0383 78.882 98.7321 78.0398 97.2408 70.3088L101.906 73.0659L102.129 73.781L81.6826 90.1566L85.7097 107.557C82.4641 105.46 79.1228 101.487 74.7847 102.416C74.1148 102.559 73.445 103.259 72.9027 103.306C72.3206 103.354 71.0686 102.496 70.1356 102.369C65.9809 101.82 63.7321 104.951 60.5582 106.866L63.9872 90.0453L44.8405 73.2566L48.437 70.5869L49.378 70.3088L49.362 70.3168ZM78.9553 89.513C78.5566 89.6242 77.1372 90.8955 76.1643 91.2689C74.051 92.0635 72.4322 92.1191 70.2552 91.4517C69.0909 91.0941 67.2807 89.5527 66.3557 89.8308C64.9362 90.2599 66.4035 91.7536 67.0175 92.2383C69.9601 94.5663 77.2169 94.757 79.6093 91.5629C80.3668 90.5538 80.303 89.1316 78.9474 89.505L78.9553 89.513Z" fill="#F7F5F2"/>
<path d="M102.472 110.346L87.4322 108.105L82.8868 90.7444L103.174 74.488L102.472 110.346Z" fill="#F7F5F2"/>
<path d="M58.7161 108.177L44.1228 110.004L43.429 73.7888L62.5837 90.7524L58.7161 108.177Z" fill="#F7F5F2"/>
<path d="M87.1052 61.259L82.5279 63.8572C82.0733 64.1671 82.3923 65.3589 82.791 65.4622C84.3142 65.8356 89.4338 61.9503 91.6427 62.4826C88.8038 66.0581 84.8644 69.2601 82.0654 72.7799C78.6682 77.0625 76.3556 82.7912 72.7831 87.0261L64.1946 73.4712L53.5646 61.4338C56.0606 60.4565 61.9617 64.763 63.5327 64.7312C64.0271 64.7233 64.8086 64.0876 64.7209 63.5712L61.6029 61.259H87.1132H87.1052Z" fill="#F7F5F2"/>
<path d="M73.4769 117.306C79.3301 116.965 83.1738 113.087 87.2568 109.44L102.48 111.562C102.48 111.895 101.069 113.58 100.718 113.985C97.9745 117.155 86.252 127 82.6316 128.692C79.7608 130.027 76.6667 130.845 73.4689 130.535V117.306H73.4769Z" fill="#F7F5F2"/>
<path d="M72.0813 117.306V130.535C70.1834 130.496 68.0702 129.852 66.3078 129.153C62.1292 127.492 47.7911 116.694 44.992 113.135C44.6411 112.69 44.1228 112.157 44.1228 111.562L58.5566 109.694C62.5199 113.325 66.3158 117.092 72.0813 117.298V117.306Z" fill="#F7F5F2"/>
<path d="M147.552 99.3812C147.815 98.5231 150 98.7853 150 99.3812V129.669C150 129.812 149.29 131.298 149.115 131.568C148.086 133.141 146.419 133.833 144.585 134.015C134.569 135.016 122.974 133.276 112.783 134.023C110.151 133.721 110.71 131.576 111.396 131.576H145.287C145.734 131.576 147.56 129.757 147.56 129.312V99.3732L147.552 99.3812Z" fill="#F7F5F2"/>
<path d="M4.81658 0.333252H39.059C39.7767 0.333252 39.7767 2.77251 39.059 2.77251H4.81658C4.48962 2.77251 2.89473 4.89394 2.89473 5.38656V34.9754L2.01753 35.5237C0.845285 35.6349 0.558204 34.5781 0.446561 33.5929C1.10844 24.7814 -0.414683 14.7542 0.454535 6.08576C0.733642 3.26512 2.04943 1.18342 4.81658 0.333252Z" fill="#F7F5F2"/>
<path d="M111.738 0.333252H145.981C146.132 0.333252 148.357 1.62041 148.612 1.89056C148.9 2.19249 150 4.4331 150 4.67941V34.6179C150 35.6269 147.552 35.6269 147.552 34.6179V4.68736C147.552 4.2742 146.037 2.77251 145.63 2.77251H111.738C110.925 2.77251 110.486 0.762306 111.738 0.333252Z" fill="#F7F5F2"/>
<path d="M2.89473 128.97C3.13396 130.329 4.50557 131.457 5.89313 131.552C16.0686 132.538 28.4609 130.345 38.3732 131.568C39.7448 131.735 39.9202 132.514 39.378 133.713L6.54704 134.039C2.23284 133.666 0.757565 131.783 0.430611 127.596C-0.111653 120.699 -0.183424 107.954 0.430611 101.105C0.701744 98.0623 2.89473 98.6661 2.89473 99.3812V128.97Z" fill="#F7F5F2"/>
<path d="M82.9107 110.354C77.4322 116.631 68.0781 116.671 62.6475 110.354L72.6077 111.077L82.9187 110.354H82.9107Z" fill="#F7F5F2"/>
<path d="M82.5598 108.256C75.9649 108.685 69.1866 109.019 62.6396 108.089C64.8006 106.707 67.2488 103.958 70.0718 104.506C70.9809 104.681 71.9617 105.793 72.5997 105.817C73.453 105.841 74.689 104.331 76.4434 104.411C78.3573 104.498 81.3716 106.755 82.5598 108.256Z" fill="#F7F5F2"/>
<path d="M100.383 69.26C99.1388 68.7833 98.1579 68.1318 96.8182 67.7663C96.0925 67.5677 94.5694 67.226 93.8836 67.2101C92.0255 67.1624 90.016 68.0682 88.1579 68.0444C89.4099 67.3134 93.4131 61.9423 94.2743 61.9343C95.1914 61.9343 99.2982 68.2827 100.391 69.2521L100.383 69.26Z" fill="#F7F5F2"/>
<path d="M57.7512 68.2191C55.5343 67.6471 53.2616 67.2577 50.933 67.5279C49.2025 67.7265 47.807 68.7356 46.2201 69.2679L51.9856 61.6165L57.7512 68.2191Z" fill="#F7F5F2"/>
<path d="M55.5582 70.0705C57.9984 72.033 54.8405 76.697 51.9856 74.1545C49.378 71.8344 52.8469 67.8935 55.5582 70.0705Z" fill="#F7F5F2"/>
<path d="M91.1882 69.6812C92.0494 69.427 94.5136 69.3793 94.9601 70.301C95.4625 71.8503 95.2632 73.5268 93.6443 74.2181C90.3668 75.6165 89.0351 70.301 91.1882 69.6733V69.6812Z" fill="#F7F5F2"/>
</g>
<defs>
<clipPath id="clip0_869_3560">
<rect width="150" height="134" fill="white" transform="translate(0 0.333252)"/>
</clipPath>
</defs>
</svg>
