<svg width="25" height="26" viewBox="0 0 25 26" fill="none" xmlns="http://www.w3.org/2000/svg">
<path d="M0.5 13C0.5 8.73438 2.75 4.79688 6.5 2.64062C10.2031 0.484375 14.75 0.484375 18.5 2.64062C22.2031 4.79688 24.5 8.73438 24.5 13C24.5 17.3125 22.2031 21.25 18.5 23.4062C14.75 25.5625 10.2031 25.5625 6.5 23.4062C2.75 21.25 0.5 17.3125 0.5 13ZM12.5 5.5C11.2344 5.5 10.25 6.53125 10.25 7.75V13C10.25 14.2656 11.2344 15.25 12.5 15.25C13.7188 15.25 14.75 14.2656 14.75 13V12.25H13.25C12.8281 12.25 12.5 11.9219 12.5 11.5C12.5 11.125 12.8281 10.75 13.25 10.75H14.75V9.25H13.25C12.8281 9.25 12.5 8.92188 12.5 8.5C12.5 8.125 12.8281 7.75 13.25 7.75H14.75C14.75 6.53125 13.7188 5.5 12.5 5.5ZM8 12.25C8 11.875 7.625 11.5 7.25 11.5C6.82812 11.5 6.5 11.875 6.5 12.25V13C6.5 16.0938 8.75 18.625 11.75 18.9531V19.75C11.75 20.1719 12.0781 20.5 12.5 20.5C12.875 20.5 13.25 20.1719 13.25 19.75V18.9531C16.2031 18.625 18.5 16.0938 18.5 13V12.25C18.5 11.875 18.125 11.5 17.75 11.5C17.3281 11.5 17 11.875 17 12.25V13C17 15.4844 14.9844 17.5 12.5 17.5C10.0156 17.5 8 15.4844 8 13V12.25Z" fill="#F7F5F2"/>
</svg>
