<svg width="31" height="22" viewBox="0 0 31 22" fill="none" xmlns="http://www.w3.org/2000/svg">
<path d="M15.6667 3.15918C15.5261 3.15918 15.4323 3.20605 15.2917 3.25293L5.07294 6.90918L7.18231 7.70605C7.41669 7.56543 7.65106 7.47168 7.88544 7.37793L15.3854 4.56543C15.7604 4.4248 16.2292 4.6123 16.3698 5.03418C16.5104 5.40918 16.3229 5.83105 15.9011 5.97168L9.29169 8.45605L15.2917 10.6123C15.4323 10.6592 15.5261 10.6592 15.6667 10.6592C15.7604 10.6592 15.9011 10.6592 15.9948 10.6123L26.2136 6.90918L15.9948 3.25293C15.9011 3.20605 15.7604 3.15918 15.6667 3.15918ZM1.36981 7.9873C0.947937 7.84668 0.666687 7.4248 0.666687 6.90918C0.666687 6.44043 0.947937 6.01855 1.36981 5.87793L14.5417 1.14355C14.8698 1.00293 15.2448 0.90918 15.6667 0.90918C16.0417 0.90918 16.4167 1.00293 16.7448 1.14355L29.9167 5.87793C30.3386 6.01855 30.6667 6.44043 30.6667 6.90918C30.6667 7.4248 30.3386 7.84668 29.9167 7.9873L16.7448 12.7217C16.4167 12.8623 16.0417 12.9561 15.6667 12.9561C15.2448 12.9561 14.8698 12.8623 14.5417 12.7217L6.57294 9.8623C5.30731 10.9873 4.51044 12.5342 4.41669 14.2686C4.69794 14.9248 4.88544 15.5811 5.02606 16.2373C5.30731 17.5029 5.54169 19.3311 5.11981 21.3467C5.07294 21.5342 4.97919 21.7217 4.79169 21.8154C4.60419 21.9092 4.41669 21.9561 4.22919 21.9092L1.22919 21.1592C0.947937 21.1123 0.760437 20.9248 0.666687 20.6904C0.619812 20.4561 0.666687 20.1748 0.807312 19.9873C1.18231 19.4248 1.55731 18.8154 1.83856 18.2061C2.40106 17.1279 2.91669 15.7686 2.91669 14.4092V14.3623C2.96356 12.4404 3.76044 10.6592 5.02606 9.2998L1.36981 7.9873ZM23.9167 11.7373L24.6667 18.5342C24.6667 20.2217 20.6354 21.9092 15.6667 21.9092C10.6979 21.9092 6.66669 20.2217 6.66669 18.5342L7.36981 11.7373L9.52606 12.5342L8.96356 18.1592C9.15106 18.3467 9.52606 18.5342 10.0886 18.7686C11.4479 19.2842 13.4167 19.6592 15.6667 19.6592C17.9167 19.6592 19.8854 19.2842 21.1979 18.7686C21.7604 18.5342 22.1354 18.3467 22.3229 18.1592L21.7604 12.5342L23.9167 11.7373ZM22.5573 17.9717V18.0186V17.9717ZM8.72919 17.9717V18.0186V17.9717Z" fill="#F1ECEB"/>
</svg>
