<svg width="36" height="14" viewBox="0 0 36 14" fill="none" xmlns="http://www.w3.org/2000/svg">
<path d="M22.9721 0.522398C26.5943 0.264151 28.7896 2.27407 30.9043 4.74343C32.5654 6.68329 34.3666 9.19469 35.4966 11.4568C35.597 11.658 35.9566 12.3407 35.988 12.4928C36.0653 12.8672 35.7601 13.2396 35.3566 13.1745C34.8611 13.0944 33.7864 11.7111 33.3777 11.3097C29.9123 7.89945 27.0772 5.59825 21.8504 7.33091C17.0198 8.93143 12.3731 11.4068 7.42748 12.8141C3.59935 13.9042 1.33822 14.1785 0.275084 9.90036C-0.515214 6.71832 0.309581 4.85254 3.89833 4.63032C6.83476 4.44915 9.61753 4.79048 12.5623 4.14286C16.1333 3.35511 19.3185 0.782647 22.9721 0.522398Z" fill="#9CA3AF"/>
</svg>
