<svg width="36" height="18" viewBox="0 0 36 18" fill="none" xmlns="http://www.w3.org/2000/svg">
<g clip-path="url(#clip0_869_3244)">
<path d="M1.13133 0.0219058C1.77186 -0.143152 2.11836 0.665739 2.49984 1.068C4.93628 3.63896 8.09414 6.02628 11.6072 6.85266C17.418 8.21903 23.7774 5.20864 29.446 4.2019C30.7883 3.96361 34.0555 3.4903 34.8425 4.97253C35.0786 5.41852 35.9082 8.42016 35.9891 8.9831C36.0568 9.45641 35.8328 9.84883 35.3136 9.82697C35.002 9.81385 34.4632 9.26184 33.9636 9.12411C32.0038 8.58303 26.9243 10.1582 24.6518 10.5342C21.0622 11.1278 16.808 11.5136 13.261 10.5998C7.91815 9.22358 4.52092 4.77359 0.787015 1.06363C0.503912 0.701811 0.690826 0.135588 1.13133 0.0219058Z" fill="#9CA3AF"/>
<path d="M10.4377 14.6497C11.2607 14.5327 12.109 13.7337 12.5101 13.0395C12.7856 12.5608 12.9113 11.6065 13.7453 12.0787C14.4601 12.4832 13.6261 13.7621 13.2938 14.2332C12.7593 14.9918 11.8903 15.6181 10.97 15.7963C10.9689 15.9155 11.2203 15.9548 11.3143 15.9822C13.0206 16.4817 14.1617 15.5668 14.8733 14.0944C15.046 13.738 15.2898 12.8001 15.4657 12.5804C15.7609 12.2121 16.4889 12.3695 16.5949 12.8297C16.7632 13.5577 15.6122 15.5864 15.0613 16.1636C16.3293 16.1133 17.4048 15.0322 17.8574 13.8867C18.0924 13.2931 18.0508 12.2722 18.9439 12.4405C19.7571 12.5936 19.2466 13.9402 19.0499 14.4256C18.7744 15.1077 18.3307 15.7023 17.8421 16.2456C19.0193 16.2554 19.9823 15.3656 20.4173 14.3206C20.6097 13.8594 20.7529 12.7575 20.9617 12.4919C21.2349 12.1454 21.8886 12.2372 22.0536 12.6045C22.3717 13.3106 21.4142 15.6192 20.7868 16.1625C22.1542 16.0882 22.9172 14.8716 23.2626 13.6473C23.4342 13.0374 23.3533 11.9071 24.1807 11.9432C25.2771 11.9902 24.5382 14.0878 24.3075 14.6923C24.1796 15.0279 23.9129 15.346 23.8156 15.5919C23.7763 15.6914 23.8364 15.7515 23.9359 15.7122C24.8038 15.3744 25.5307 13.6582 25.7996 12.8297C25.9089 12.4941 25.9307 11.8623 26.1876 11.6633C26.4729 11.4425 27.0227 11.4436 27.1899 11.8043C27.5255 12.528 26.5997 14.4999 26.1876 15.1809C26.1701 15.2356 26.2597 15.2399 26.3089 15.2203C27.0817 14.9033 27.9245 13.55 28.213 12.7881C28.4131 12.2602 28.4852 11.0282 29.0886 10.9616C29.9346 10.8676 29.9608 11.6568 29.7466 12.2766L29.1727 13.9938C29.9543 13.3292 30.4309 12.5946 30.8648 11.6775C31.0933 11.1944 31.3141 9.87065 32.1885 10.5702C32.5787 10.8829 32.3481 11.4108 32.2213 11.8076C31.4846 14.1053 29.963 15.2487 27.8042 16.063C23.3183 17.7551 18.4039 18.3093 13.6272 17.8404C11.5427 17.636 9.77526 16.8096 7.96734 15.8094C7.56728 15.5886 6.24577 14.8617 6.01185 14.5742C5.75717 14.2627 6.0042 13.8462 6.36272 13.7675C6.75185 13.6812 7.33773 13.7315 7.79573 13.6462C8.69423 13.4779 9.51293 13.0308 10.0026 12.2525C10.2628 11.8382 10.3338 11.1244 10.9886 11.2272C12.3549 11.4425 10.794 13.5708 10.2333 13.9556L9.08663 14.6497C9.50965 14.607 10.0278 14.7076 10.4366 14.6497H10.4377Z" fill="#9CA3AF"/>
<path d="M9.14566 10.3375C9.83757 10.9212 8.59367 12.0733 8.09851 12.3925C7.18143 12.9828 5.78996 13.22 4.70674 13.1806C4.49687 13.173 3.85087 13.1107 3.68254 13.0593C3.04856 12.8658 3.04201 11.7367 4.22142 11.7826C5.34727 11.8263 6.44471 11.9597 7.44486 11.2491C7.9433 10.895 8.42643 9.73193 9.14457 10.3375H9.14566Z" fill="#9CA3AF"/>
<path d="M1.50404 9.11097C1.92377 8.72729 2.71297 9.1208 3.23873 9.16562C3.86943 9.21809 4.65424 9.2006 5.24122 8.96121C5.74512 8.75571 6.14737 8.21354 6.74418 8.68685C7.54867 9.32521 5.93531 10.1265 5.42376 10.2882C4.53619 10.5702 2.50966 10.5757 1.66581 10.1658C1.27231 9.97451 1.18049 9.4072 1.50513 9.10987L1.50404 9.11097Z" fill="#9CA3AF"/>
<path d="M0.194579 6.49288C0.606663 6.11467 1.56528 6.55409 2.10088 6.62077C2.30747 6.64591 2.73813 6.70384 2.91849 6.70384C3.43988 6.70384 4.85649 6.18353 4.75046 7.23618C4.6652 8.08005 2.55887 8.00572 1.93801 7.9292C1.58058 7.88548 0.442704 7.66358 0.207696 7.45043C-0.0644768 7.20339 -0.0699421 6.73554 0.194579 6.49288Z" fill="#9CA3AF"/>
</g>
<defs>
<clipPath id="clip0_869_3244">
<rect width="36" height="18" fill="white"/>
</clipPath>
</defs>
</svg>
