<svg width="39" height="48" viewBox="0 0 39 48" fill="none" xmlns="http://www.w3.org/2000/svg">
<g clip-path="url(#clip0_869_3285)">
<path d="M17.5571 0.0524902C33.1602 -0.974659 39.2835 13.3996 37.9997 26.77C36.306 44.419 17.3404 57.153 4.97385 39.6072C-3.86339 27.0693 -0.99718 1.27432 17.5571 0.0524902ZM10.0915 18.9029C7.7171 19.1586 5.09389 21.0095 5.77165 23.6711C6.83294 27.8407 14.8065 27.848 15.9381 23.8338C16.9086 20.3892 12.9694 18.592 10.0915 18.9029ZM26.5583 18.9015C23.8955 19.2022 21.1157 21.5965 22.5883 24.4164C24.3405 27.771 31.045 27.633 32.3771 24.0227C33.6623 20.5374 29.5138 18.5688 26.5583 18.9015ZM16.5631 28.1531C16.1386 28.2374 16.0786 28.5672 16.1532 28.9463C16.2879 29.6364 18.308 30.3861 18.9551 30.4224C19.826 30.4718 21.6456 29.8398 22.0657 29.0422C22.3146 28.5686 22.0233 28.0877 21.4773 28.1211C20.8317 28.1604 20.2857 29.202 18.9536 29.112C17.9509 29.0437 17.1984 28.0267 16.5631 28.1516V28.1531ZM13.3324 36.5563C12.5917 37.4163 13.9121 38.3389 14.5796 38.7892C17.2087 40.5632 20.9517 40.5806 23.6072 38.8546C24.26 38.4304 25.3799 37.6996 25.1047 36.8439C25.0007 36.5214 23.6686 35.5974 23.3012 35.3635C22.5854 34.9087 21.4568 34.2317 20.596 34.2346C20.0515 34.2361 19.586 34.6603 19.1673 34.6777C18.3461 34.7126 18.2392 33.9993 16.812 34.4003C16.1371 34.5906 13.7672 36.0492 13.331 36.5563H13.3324Z" fill="#D95388"/>
<path d="M17.1091 36.328C17.4458 36.2307 20.5872 36.2438 21.0322 36.3121C21.912 36.4486 21.8242 37.5746 20.9225 37.7155C20.3208 37.8099 17.9172 37.8085 17.3126 37.7155C16.4636 37.5847 16.4855 36.5082 17.1091 36.328Z" fill="#D95388"/>
</g>
<defs>
<clipPath id="clip0_869_3285">
<rect width="38" height="48" fill="white" transform="translate(0.165108 0.00012207)"/>
</clipPath>
</defs>
</svg>
