<svg width="37" height="48" viewBox="0 0 37 48" fill="none" xmlns="http://www.w3.org/2000/svg">
<g clip-path="url(#clip0_869_3294)">
<path d="M31.1156 47.9999C31.3679 46.8664 31.6917 45.7527 31.8864 44.6053C32.4725 41.147 32.6532 37.4103 31.7315 34.0097C32.4029 33.4131 33.1439 32.8782 33.72 32.1802C34.2345 31.5597 35.7105 29.5989 34.3299 29.1634C33.418 28.8751 32.8956 30.4958 32.3711 31.1302C32.2122 31.3211 31.1852 32.391 31.0143 32.2896C30.329 31.1103 29.582 29.9211 28.5153 29.06C29.5959 27.4194 30.0886 25.6276 29.9118 23.6489C29.8025 22.4298 28.9364 21.6761 28.1339 22.8693C28.2471 24.3449 28.3345 25.6733 27.6948 27.0495C27.5657 27.3239 27.1108 28.0756 26.9042 28.2665C26.1712 28.9506 24.2641 29.1594 23.2927 29.1197C24.2303 26.8765 24.7011 24.7228 24.127 22.3085C23.9423 21.533 23.5986 20.0256 22.4941 20.7375C21.6935 21.2526 22.4285 22.3881 22.5616 23.1716C22.8358 24.7804 22.4484 27.0833 21.624 28.5052C21.2942 29.0759 20.5731 29.0739 19.9295 29.1197C19.254 29.1654 16.3517 29.1753 15.9206 28.8154C15.7418 28.6662 15.2313 27.3875 15.136 27.0892C14.7367 25.8284 14.5678 24.4782 14.7903 23.1716C14.9194 22.4179 15.6803 21.173 14.8181 20.6778C13.7493 20.0634 13.3977 21.5767 13.2249 22.3065C12.6508 24.7208 13.1236 26.8745 14.0592 29.1177C13.1236 29.1634 11.2245 28.9407 10.5073 28.3063C9.80409 27.6839 9.21409 26.077 9.14059 25.1543C9.09092 24.5338 9.34123 23.2034 9.20018 22.7838C9.10086 22.4915 8.68766 22.2708 8.39564 22.2807C7.03287 22.3264 7.4123 25.4009 7.60499 26.2898C7.82947 27.3279 8.31419 28.1552 8.83665 29.058C7.76789 29.9191 7.02294 31.1083 6.3356 32.2856C6.19058 32.393 5.07415 31.2495 4.93112 31.0745C4.59142 30.6569 4.04115 29.4816 3.72132 29.2728C3.02603 28.8194 2.293 29.4915 2.44199 30.2492C2.49562 30.5236 3.01411 31.333 3.20085 31.6015C3.86236 32.556 4.73246 33.2739 5.61647 34.0078C4.42455 38.5956 5.05826 43.4618 6.2323 47.9999C5.0662 47.9482 4.55566 46.7828 4.07293 45.8939C1.25205 40.6836 -1.24304 28.5827 2.72209 23.6489C3.35778 22.8594 4.2696 22.5333 4.72849 22.0421C5.01257 21.7378 5.41782 20.471 5.67805 19.9798C6.83422 17.7804 8.7254 15.917 11.0874 15.0679C11.5681 16.0045 12.1442 16.454 13.0858 16.8855C16.0915 18.2616 20.9207 18.2895 24.0654 17.3966C25.4202 17.0128 26.5466 16.4082 27.7346 15.6824C29.4132 16.6608 30.7263 18.206 31.6302 19.9142C31.9122 20.4472 32.2738 21.6225 32.5698 21.9864C32.7843 22.2509 33.3465 22.4458 33.6664 22.6963C38.0407 26.1128 36.6978 35.7816 35.3966 40.4907C34.896 42.3024 34.163 44.2453 33.271 45.8939C32.7903 46.7828 32.2778 47.9482 31.1117 47.9999H31.1156Z" fill="#9CA3AF"/>
<path d="M28.2848 5.13664C29.8264 5.01732 29.8701 6.5625 29.8105 7.67615C29.4013 15.1733 22.7086 17.1719 16.2484 16.0305C15.2313 15.8515 11.5522 15.062 12.9547 13.3995C13.4613 12.7989 14.9055 12.952 15.7001 12.8327C19.2719 12.2998 22.8834 10.8282 25.3984 8.17927C26.2069 7.32813 26.7909 6.3 27.5518 5.41505C27.7365 5.27386 28.0603 5.15255 28.2828 5.13465L28.2848 5.13664Z" fill="#9CA3AF"/>
<path d="M27.4028 3.60745C26.0698 3.97138 25.5772 5.29582 24.7925 6.26826C24.1826 7.02196 23.3086 7.84129 22.5219 8.41402C22.2259 8.62879 20.9724 9.468 20.7102 9.52169C20.2831 9.60919 19.6613 8.71629 19.3275 8.4339C18.5587 7.78361 17.6966 7.26458 16.8861 6.67594C18.1773 4.09467 20.3307 0.737834 23.6443 1.00034C25.1302 1.11767 26.8426 2.2333 27.4068 3.60745H27.4028Z" fill="#9CA3AF"/>
<path d="M18.7753 10.3369C17.925 10.5974 17.0649 10.8539 16.1848 11.009C15.1876 11.184 13.948 11.1463 13.0521 11.3889C12.5833 11.5142 12.2237 11.7886 11.8204 12.0312C10.2332 11.4744 8.40954 9.32665 9.64517 7.67806C10.8768 6.03742 14.2341 7.21669 15.7319 8.01215C16.016 8.16329 18.9541 10.1062 18.7753 10.3389V10.3369Z" fill="#9CA3AF"/>
<path d="M19.7785 0.296203L18.674 1.14734C17.2278 2.49167 16.2742 4.21981 15.2988 5.91016C13.654 5.35532 11.8741 4.84225 10.1478 5.31555C10.9305 1.06979 15.9445 -0.769713 19.7785 0.296203Z" fill="#9CA3AF"/>
</g>
<defs>
<clipPath id="clip0_869_3294">
<rect width="36" height="48" fill="white" transform="translate(0.666023)"/>
</clipPath>
</defs>
</svg>
