<svg width="26" height="36" viewBox="0 0 26 36" fill="none" xmlns="http://www.w3.org/2000/svg">
<g clip-path="url(#clip0_869_3224)">
<path d="M17.6588 17.5988L20.1615 18.5094C23.8886 20.042 27.0394 23.7205 24.6988 27.8137C22.8533 31.0413 18.6311 32.4928 15.1201 32.8445C14.9941 33.3854 14.706 33.9624 14.1118 34.1247C13.7157 34.2329 12.1673 34.2058 11.7982 34.0706C11.249 33.8723 11.015 33.3854 10.9069 32.8445C6.58572 32.5109 0.103903 29.707 0.518019 24.4868C0.8061 20.8895 5.19933 18.3651 8.36822 17.6889L6.96382 17.0308C-2.11072 12.3245 1.25623 1.80313 10.4658 0.216355C15.1921 -0.595065 20.7737 0.874507 23.2674 5.25617C26.3012 10.5935 22.9073 15.7956 17.6498 17.5988H17.6588ZM12.4914 2.57849C8.18817 2.80388 3.2908 6.21185 4.99227 11.0533C7.56699 18.3741 22.0701 17.0127 21.2778 8.51989C20.8997 4.46279 16.0834 2.39817 12.4824 2.5875L12.4914 2.57849ZM11.5641 19.5642C8.48525 19.7716 2.2285 21.5747 3.09274 25.713C3.95698 29.8512 11.222 30.7077 14.661 30.4372C17.7218 30.1938 23.8976 28.4267 22.9343 24.2614C21.971 20.0961 14.9311 19.3298 11.5641 19.5552V19.5642Z" fill="#9CA3AF"/>
<path d="M25.338 29.3464C25.2569 29.8333 25.0319 30.3562 24.7888 30.789C20.9987 37.7041 5.19032 37.7221 1.30123 30.8972C1.04916 30.4644 0.73407 29.8243 0.73407 29.3464C2.38153 31.4471 4.82121 32.7905 7.35992 33.5298C7.94509 33.7011 9.44851 33.8994 9.83562 34.0978C10.0517 34.215 10.4388 34.828 10.7449 35.0444C11.7081 35.7206 14.2649 35.7296 15.2371 35.0805C15.5612 34.8641 15.9933 34.1969 16.2004 34.0978C16.7135 33.8633 18.0459 33.7101 18.7301 33.5117C21.2868 32.7544 23.6185 31.4201 25.329 29.3464H25.338Z" fill="#9CA3AF"/>
<path d="M15.6873 7.33879C16.2274 6.74375 15.6242 5.93233 14.895 6.24788L10.1057 9.73698C9.34948 10.2419 9.55653 11.1975 10.5018 11.0713L15.6873 7.33879ZM16.1914 9.88124C16.6775 9.31324 16.1104 8.45674 15.3992 8.79033L12.1943 11.1164C11.7351 11.6483 12.2753 12.4417 12.9325 12.2344L16.1914 9.88124Z" fill="white"/>
<path d="M15.6873 7.33879L10.5018 11.0713C9.54754 11.1975 9.34948 10.2419 10.1057 9.73698L14.895 6.24788C15.6152 5.93233 16.2274 6.74375 15.6873 7.33879Z" fill="#9CA3AF"/>
<path d="M16.1914 9.88133L12.9325 12.2345C12.2753 12.4418 11.7442 11.6484 12.1943 11.1165L15.3992 8.79042C16.1194 8.45684 16.6775 9.31334 16.1914 9.88133Z" fill="#9CA3AF"/>
<path d="M11.8162 20.9165C14.3459 20.7452 17.1817 21.0518 19.4323 22.2869C21.6829 23.5221 22.6912 25.4605 20.3055 27.2186C16.9206 29.7159 10.2407 29.743 6.6037 27.7866C5.80247 27.3538 4.51511 26.3801 4.40708 25.4154C4.05598 22.1788 9.4665 21.0698 11.8162 20.9165Z" fill="#9CA3AF"/>
</g>
<defs>
<clipPath id="clip0_869_3224">
<rect width="25" height="36" fill="white" transform="translate(0.5)"/>
</clipPath>
</defs>
</svg>
