<svg width="36" height="24" viewBox="0 0 36 24" fill="none" xmlns="http://www.w3.org/2000/svg">
<g clip-path="url(#clip0_869_3268)">
<path d="M0 13.7586C0.674089 13.6952 1.25325 13.7154 1.89857 13.9345C1.9935 13.9662 2.07309 14.071 2.1613 14.094C2.60143 14.2094 5.08012 13.2666 5.77818 13.1022C9.82751 12.1508 12.5354 13.1416 16.4274 13.6077C19.4402 13.9691 21.7482 13.0705 24.645 12.7726C26.9262 12.5381 29.0817 12.7476 31.2718 13.3877C31.8394 13.553 33.366 14.217 33.8377 14.094C33.926 14.071 34.0055 13.9672 34.1005 13.9345C34.7122 13.7269 35.3643 13.6577 36 13.7951C35.3125 16.1555 33.925 18.1487 31.9842 19.6355C25.3124 24.7473 11.1354 24.7473 4.33699 19.8767C2.2361 18.3717 0.808332 16.3602 0 13.8999L0 13.7586ZM31.0532 16.2718C31.4156 15.9248 31.3888 15.377 30.9362 15.1329C29.9581 14.6072 27.6981 14.119 26.6107 14.2497C25.7237 14.3564 25.5876 15.5885 26.4314 15.7711C26.8552 15.8633 27.3672 15.7682 27.8064 15.8018C28.7087 15.872 29.5688 16.217 30.4165 16.5034C30.6121 16.5178 30.9122 16.4054 31.0522 16.2708L31.0532 16.2718Z" fill="#9CA3AF"/>
<path d="M35.6481 13.1245C35.2185 13.113 34.787 13.1188 34.3661 13.2139C34.1513 13.2629 33.6489 13.5234 33.5309 13.5128C33.0246 13.4696 31.7695 12.8891 31.1625 12.7209C30.4328 12.5181 29.6398 12.4508 28.9513 12.2586C27.8534 11.953 26.8562 11.4619 25.6633 11.1842C19.7452 9.80698 13.5499 10.0645 7.78511 11.9415C6.75528 12.2769 5.86449 12.4345 4.83562 12.7199C4.22865 12.8881 2.97348 13.4686 2.46719 13.5119C2.34925 13.5224 1.8468 13.261 1.63201 13.213C1.21203 13.1178 0.823682 13.1793 0.454515 13.1236C0.346162 13.1073 0.347121 13.1659 0.34808 13.0169C0.366299 11.4465 1.3923 9.76374 2.2198 8.47784C3.4347 6.59225 4.76945 5.47166 6.54529 4.1454C8.31921 2.82299 11.6436 0.352109 13.8893 0.5078C15.5568 0.623127 16.5301 2.107 18.3855 1.91863C19.6483 1.79081 20.7069 0.626971 22.0436 0.510684C24.2452 0.319433 27.3922 2.62981 29.1306 3.90513C31.7714 5.84359 33.4724 7.48219 34.9558 10.4692C35.3729 11.3082 35.6117 12.1808 35.6471 13.1236L35.6481 13.1245ZM21.9889 1.50922C21.6361 1.58034 21.4395 2.00897 21.5469 2.3463C21.6687 2.7288 22.5556 2.85951 22.921 3.01327C24.761 3.78789 26.3067 4.98152 27.9694 6.05982C28.3031 6.25203 28.7039 5.96083 28.7548 5.61485C28.8056 5.26887 28.702 5.2016 28.4767 4.98536C27.8774 4.40681 26.2176 3.4025 25.4476 2.94792C24.8521 2.59714 22.5633 1.39293 21.9889 1.51018V1.50922ZM13.1318 1.72065C12.6955 1.77063 12.4989 2.24635 12.6965 2.61828C12.9199 3.04018 13.4722 2.91525 13.8558 3.00751C14.1846 3.08728 14.5567 3.20645 14.8731 3.32658C15.3554 3.51014 16.2299 4.0714 16.6451 4.15789C17.2195 4.27802 17.7449 3.72446 17.4007 3.2593C17.2099 3.00174 15.0256 2.09066 14.6085 1.97149C14.2652 1.8725 13.4578 1.68317 13.1328 1.72065H13.1318Z" fill="#9CA3AF"/>
</g>
<defs>
<clipPath id="clip0_869_3268">
<rect width="36" height="23" fill="white" transform="translate(0 0.5)"/>
</clipPath>
</defs>
</svg>
