<svg width="30" height="31" viewBox="0 0 30 31" fill="none" xmlns="http://www.w3.org/2000/svg">
<path d="M15 0.75C15.9961 0.75 16.875 1.62891 16.875 2.625V4.67578C21.5625 5.49609 25.2539 9.1875 26.0742 13.875H28.125C29.1211 13.875 30 14.7539 30 15.75C30 16.8047 29.1211 17.625 28.125 17.625H26.0742C25.2539 22.3711 21.5625 26.0625 16.875 26.8828V28.875C16.875 29.9297 15.9961 30.75 15 30.75C13.9453 30.75 13.125 29.9297 13.125 28.875V26.8828C8.37891 26.0625 4.6875 22.3711 3.86719 17.625H1.875C0.820312 17.625 0 16.8047 0 15.75C0 14.7539 0.820312 13.875 1.875 13.875H3.86719C4.6875 9.1875 8.37891 5.49609 13.125 4.67578V2.625C13.125 1.62891 13.9453 0.75 15 0.75ZM7.5 15.75C7.5 18.4453 8.90625 20.9062 11.25 22.2539C13.5352 23.6016 16.4062 23.6016 18.75 22.2539C21.0352 20.9062 22.5 18.4453 22.5 15.75C22.5 13.1133 21.0352 10.6523 18.75 9.30469C16.4062 7.95703 13.5352 7.95703 11.25 9.30469C8.90625 10.6523 7.5 13.1133 7.5 15.75ZM15 11.0625C16.6406 11.0625 18.1641 12 19.043 13.4062C19.8633 14.8711 19.8633 16.6875 19.043 18.0938C18.1641 19.5586 16.6406 20.4375 15 20.4375C13.3008 20.4375 11.7773 19.5586 10.8984 18.0938C10.0781 16.6875 10.0781 14.8711 10.8984 13.4062C11.7773 12 13.3008 11.0625 15 11.0625Z" fill="#3A3232" fill-opacity="0.7"/>
</svg>
