<svg width="36" height="38" viewBox="0 0 36 38" fill="none" xmlns="http://www.w3.org/2000/svg">
<g clip-path="url(#clip0_869_3209)">
<path d="M25.8947 14.6594L29.1092 12.9738L29.4108 12.5805C29.4391 12.3089 29.0715 12.0373 28.8075 12.1497L25.216 14.1163L24.132 13.339C24.0754 13.2547 24.3299 12.9457 24.3959 12.8614C25.3009 11.7283 26.3849 10.7262 27.2804 9.58374C27.6198 9.13424 27.2239 8.65664 26.7337 8.94694L23.4533 12.6366L22.3881 11.7189L23.8303 7.99174V7.5516C23.5852 7.32685 23.2553 7.28002 23.0856 7.60779L21.747 11.1477C21.747 11.1477 21.37 10.8948 21.304 10.8386C19.9749 9.71485 20.5027 8.88139 20.9269 7.47668C21.3511 6.07197 22.1712 3.13145 22.85 1.9234C23.6512 0.471874 25.6119 0.0785554 26.9882 0.977568C29.458 3.35621 32.6819 5.47263 35.0479 7.8981C36.5185 9.39645 36.2922 11.5129 34.4729 12.5992C33.0401 13.4607 30.8437 14.4909 29.2883 15.1745C28.4305 15.5584 27.7235 16.0173 26.7808 15.5022C26.6206 15.418 25.8099 14.7905 25.9042 14.6688L25.8947 14.6594Z" fill="#D95388"/>
<path d="M15.2427 17.8247L20.0503 22.0013L20.022 22.1231L4.45877 37.219C3.09192 38.1087 1.53654 36.7039 2.30951 35.2524L15.2427 17.8153V17.8247Z" fill="#D95388"/>
<path d="M20.1917 11.0634L26.1587 16.1109L22.2278 19.9973L16.9772 15.4835L20.1917 11.0634Z" fill="#D95388"/>
<path d="M15.7329 17.2067L15.7706 17.0288L16.4776 16.1578L21.5585 20.5967L20.8515 21.3833H20.6819L15.7329 17.2067Z" fill="#D95388"/>
<path d="M3.6198 12.1123C2.77141 12.4494 2.24352 13.1986 1.8099 13.9571C1.35742 13.1705 0.79183 12.5243 0 12.0748C0.754124 11.5504 1.43284 10.9417 1.8099 10.0989C2.16811 10.9604 2.90338 11.5598 3.6198 12.1217V12.1123Z" fill="#D95388"/>
<path d="M31.1076 26.7774C31.3998 27.6577 32.1917 28.1634 32.8798 28.7066C32.2482 28.8939 31.7204 29.5026 31.3433 30.0364C31.249 30.1581 31.0982 30.7013 30.9379 30.5514C30.6646 29.718 29.9387 29.0531 29.1658 28.6691C29.7879 28.3133 30.231 27.9012 30.6552 27.3393C30.7494 27.2082 30.9757 26.6557 31.1076 26.7868V26.7774Z" fill="#D95388"/>
<path d="M5.96701 0.968262L6.97565 1.97029L5.96701 2.98168L5.03378 1.97029L5.96701 0.968262Z" fill="#D95388"/>
</g>
<defs>
<clipPath id="clip0_869_3209">
<rect width="36" height="37" fill="white" transform="translate(0 0.5)"/>
</clipPath>
</defs>
</svg>
