<svg width="30" height="25" viewBox="0 0 30 25" fill="none" xmlns="http://www.w3.org/2000/svg">
<path d="M3 0.666687H16.5C18.1406 0.666687 19.5 2.02606 19.5 3.66669V12.6667C19.5 14.3542 18.1406 15.6667 16.5 15.6667H9.46875L5.67188 18.5261C5.4375 18.7136 5.15625 18.7136 4.875 18.6198C4.64062 18.4792 4.5 18.2448 4.5 17.9167V15.6667H3C1.3125 15.6667 0 14.3542 0 12.6667L0 3.66669C0 2.02606 1.3125 0.666687 3 0.666687ZM16.5 17.1667C18.9844 17.1667 21 15.1511 21 12.6667V6.66669H27C28.6406 6.66669 30 8.02606 30 9.66669V18.6667C30 20.3542 28.6406 21.6667 27 21.6667H25.5V23.9167C25.5 24.2448 25.3125 24.4792 25.0781 24.6198C24.7969 24.7136 24.5156 24.7136 24.2812 24.5261L20.4844 21.6667H15C13.3125 21.6667 12 20.3542 12 18.6667V17.1667H16.5Z" fill="white"/>
</svg>
