<svg width="24" height="48" viewBox="0 0 24 48" fill="none" xmlns="http://www.w3.org/2000/svg">
<path d="M6.35001 0.140938C9.85655 0.359815 14.0261 -0.242686 17.4562 0.115049C18.6165 0.235079 19.2566 1.03527 19.351 2.0567C19.5652 4.34903 19.1648 6.90024 19.3688 9.22081C21.9496 11.1954 23.671 13.8973 23.9923 17.0227L24 47.1501C24.0178 47.5125 23.824 47.8114 23.4594 47.9479L0.912972 47.9974C0.52024 48.0138 0.196364 47.835 0.0484519 47.4984L0.00254822 17.0204C0.341726 13.9043 2.07077 11.2072 4.62607 9.21846L4.65923 1.86842C4.76889 1.01409 5.41919 0.286856 6.35001 0.138584V0.140938ZM19.3459 11.4872V19.4163C19.3459 23.8009 13.9828 26.7992 9.59388 25.4224C7.10998 24.6434 4.64647 22.0239 4.64647 19.5151V11.4849C3.44023 12.4263 2.5451 13.9796 2.10647 15.3753C1.99681 15.7259 1.72649 16.6109 1.72649 16.9215V46.397H22.2633V16.9215C22.2633 16.6273 22.0083 15.7895 21.9088 15.4529C21.4829 14.0243 20.5725 12.4498 19.3459 11.4849V11.4872Z" fill="#9CA3AF"/>
</svg>
