<svg width="41" height="12" viewBox="0 0 41 12" fill="none" xmlns="http://www.w3.org/2000/svg">
<path d="M30.4163 6C30.4163 4.125 31.4475 2.4375 33.0413 1.5C34.7288 0.5625 36.6975 0.5625 38.2913 1.5C39.9788 2.4375 40.9163 4.125 40.9163 6C40.9163 7.96875 39.9788 9.65625 38.2913 10.5938C36.6975 11.5313 34.7288 11.5313 33.0413 10.5938C31.4475 9.65625 30.4163 7.96875 30.4163 6ZM15.4163 6C15.4163 4.125 16.4475 2.4375 18.0413 1.5C19.7288 0.5625 21.6975 0.5625 23.2913 1.5C24.9788 2.4375 25.9163 4.125 25.9163 6C25.9163 7.96875 24.9788 9.65625 23.2913 10.5938C21.6975 11.5313 19.7288 11.5313 18.0413 10.5938C16.4475 9.65625 15.4163 7.96875 15.4163 6ZM5.6663 0.75C7.63505 0.75 9.32255 1.78125 10.26 3.375C11.1975 5.0625 11.1975 7.03125 10.26 8.625C9.32255 10.3125 7.63505 11.25 5.6663 11.25C3.7913 11.25 2.1038 10.3125 1.1663 8.625C0.228798 7.03125 0.228798 5.0625 1.1663 3.375C2.1038 1.78125 3.7913 0.75 5.6663 0.75Z" fill="#9CA3AF"/>
</svg>
