<svg width="36" height="36" viewBox="0 0 36 36" fill="none" xmlns="http://www.w3.org/2000/svg">
<g clip-path="url(#clip0_869_3256)">
<path d="M33.2484 -3.90626e-05C34.695 0.269023 35.7206 1.29465 35.9897 2.74215C35.9663 3.01121 36.0225 3.32434 35.9897 3.5859C35.7797 5.25184 34.1709 6.46871 32.5191 6.31965C32.265 6.29621 31.5422 6.02621 31.4241 6.07965L28.4653 9.03371C28.3969 9.09371 28.3875 9.1284 28.4306 9.2109C28.5188 9.38152 28.9856 9.71246 29.1394 9.91308C29.4909 10.3706 29.4919 10.8646 29.1394 11.3221C28.5656 12.0684 27.5691 12.7528 26.9606 13.5046L26.8275 13.5656L22.4297 9.11527C23.0044 8.6859 24.4528 6.79309 25.0228 6.64309C25.4372 6.5334 25.7513 6.6009 26.0813 6.85402C26.2584 6.9909 26.7488 7.65277 26.9222 7.56277L29.9128 4.56746C29.9663 4.4484 29.6963 3.72559 29.6728 3.47152C29.5238 1.81871 30.7397 0.209961 32.4056 -0.000976562H33.2494L33.2484 -3.90626e-05Z" fill="#9CA3AF"/>
<path d="M1.33594 36H0.773438C0.37125 35.7909 0.209063 35.6287 0 35.2265V34.664L0.315 34.17L5.97375 28.5112C4.66781 27.4546 4.56281 26.6475 5.94938 25.5984L10.3369 29.9156C10.4053 29.9756 10.4147 30.0103 10.3716 30.0928C10.3462 30.1415 9.67125 30.8137 9.59437 30.8671C8.70937 31.4868 8.05687 30.5925 7.485 30.0243L1.82812 35.685L1.33406 36H1.33594Z" fill="#9CA3AF"/>
<path d="M33.2484 0H35.9897V2.74219C35.7206 1.29469 34.695 0.269062 33.2484 0Z" fill="#9CA3AF"/>
<path d="M0.773438 36H0V35.2266C0.209063 35.6287 0.37125 35.7909 0.773438 36Z" fill="#9CA3AF"/>
<path d="M17.6953 8.10278C18.1162 8.03434 18.4322 8.14591 18.7341 8.43559L27.5897 17.2959C27.9731 17.7093 28.0228 18.2709 27.6947 18.7387L25.3997 21.0178L22.9641 18.6881C22.0519 18.1425 21.0187 19.0162 21.4209 20.0212C21.7134 20.7525 23.3972 21.8362 23.8228 22.5965L22.3866 24.0459L19.9847 21.6684C19.0322 21.0787 17.9484 22.1184 18.4959 23.0878L20.8706 25.5497L19.3744 26.9953L16.9641 24.6206C15.9937 24.0993 14.9428 25.1372 15.5456 26.1103L17.9222 28.5131C17.1497 29.1412 16.4128 30.2231 15.6366 30.7959C15.195 31.1222 14.7216 31.2018 14.2659 30.8353L5.1628 21.7303C4.7803 21.2137 4.85811 20.7993 5.23405 20.3212C5.84343 19.5478 6.83624 18.8428 7.48405 18.0731L9.88593 20.4506C10.8591 21.0534 11.8969 20.0015 11.3747 19.0312L8.99999 16.62L10.4456 15.1228L12.9066 17.4975C13.8797 18.0243 14.895 16.9772 14.3269 16.0068L11.9484 13.6059L13.3978 12.1697C13.5966 12.135 15.4734 14.3728 15.9722 14.5725C16.9762 14.9747 17.85 13.9415 17.3044 13.0284L14.9747 10.5918L17.2537 8.29684C17.3756 8.20591 17.5444 8.12716 17.6925 8.10372L17.6953 8.10278Z" fill="#9CA3AF"/>
</g>
<defs>
<clipPath id="clip0_869_3256">
<rect width="36" height="36" fill="white"/>
</clipPath>
</defs>
</svg>
