<svg width="36" height="26" viewBox="0 0 36 26" fill="none" xmlns="http://www.w3.org/2000/svg">
<g clip-path="url(#clip0_869_3277)">
<path d="M34.0586 26.1959C33.3876 25.6397 32.6715 25.1679 31.881 24.7974C32.5359 23.2905 33.0682 21.7636 33.2952 20.1241C34.8319 9.00559 24.4283 0.0464979 13.6289 3.17676C4.5169 5.81911 -0.0411056 16.267 4.15129 24.7984C3.3779 25.1709 2.63665 25.6056 2.00588 26.1959C0.975356 24.178 0.299389 21.9503 0.08545 19.6824C-1.57283 2.0885 20.6959 -7.07741 31.9483 6.5831C36.4691 12.0716 37.2526 19.845 34.0586 26.1949V26.1959Z" fill="#9CA3AF"/>
<path d="M29.4523 25.6907C36.0964 25.4909 36.5353 35.6065 29.8832 35.989C23.0622 36.3815 22.5439 25.8985 29.4523 25.6907ZM29.5808 26.9918C28.257 26.9145 26.8187 27.8521 26.198 28.9926C25.9037 29.5327 25.3111 31.2565 26.207 31.4542C27.1552 31.6641 26.9814 30.4965 27.1944 29.9122C27.4203 29.2918 28.0843 28.6262 28.716 28.4214C29.0907 28.2999 29.4814 28.3471 29.8038 28.2286C30.4557 27.9897 30.3402 27.0359 29.5808 26.9918Z" fill="#9CA3AF"/>
<path d="M6.25043 25.6905C13.0332 25.4958 13.3466 35.6074 6.75665 35.9889C0.16673 36.3704 -0.522293 25.8853 6.25043 25.6905ZM6.45533 26.9886C5.11444 26.8862 3.63696 27.864 3.03632 29.0326C2.72094 29.646 2.07611 31.6569 3.35874 31.4651C3.99252 31.3708 3.87099 30.2875 4.11807 29.7374C4.39428 29.12 5.04112 28.5487 5.697 28.3791C5.9933 28.3017 6.22331 28.3319 6.49551 28.2736C7.36432 28.0889 7.25685 27.0508 6.45533 26.9896V26.9886Z" fill="#9CA3AF"/>
</g>
<defs>
<clipPath id="clip0_869_3277">
<rect width="36" height="36" fill="white"/>
</clipPath>
</defs>
</svg>
