<svg width="48" height="30" viewBox="0 0 48 30" fill="none" xmlns="http://www.w3.org/2000/svg">
<g clip-path="url(#clip0_869_3311)">
<path d="M48.0001 18.1537V28.5336C47.7926 28.9782 47.5601 29.3248 47.0651 29.5012H0.935002C0.440001 29.3261 0.20875 28.9794 0 28.5336V18.1537C0.417501 18.1733 0.930002 18.1929 1.335 18.2689C3.33376 18.6449 4.62126 20.2138 6.55751 20.5922C11.0263 21.4667 12.2813 18.019 16.2713 18.1488C19.905 18.2676 21.0625 21.4471 25.4113 20.5922C27.7238 20.1378 28.9126 18.308 31.5488 18.1549C35.7588 17.9088 36.9976 21.6627 41.7388 20.5151C43.2138 20.1574 44.1763 19.1335 45.5151 18.6118C46.3051 18.3044 47.1526 18.1733 48.0014 18.1549L48.0001 18.1537ZM16.6675 22.2138C14.835 22.3522 14.9775 25.2733 17.1038 24.9438C18.6988 24.6964 18.4363 22.0791 16.6675 22.2138ZM31.6676 22.2138C29.8351 22.3522 29.9776 25.2733 32.1038 24.9438C33.6988 24.6964 33.4363 22.0791 31.6676 22.2138ZM7.66752 24.9696C5.85376 25.1067 5.97001 28.0302 8.10377 27.6996C9.69877 27.4522 9.43627 24.8348 7.66752 24.9696ZM23.8863 24.9696C22.0538 25.108 22.1963 28.029 24.3225 27.6996C25.9176 27.4522 25.6551 24.8348 23.8863 24.9696ZM40.1051 24.9696C38.2913 25.1067 38.4076 28.0302 40.5413 27.6996C42.1363 27.4522 41.8738 24.8348 40.1051 24.9696Z" fill="#9CA3AF"/>
<path d="M48.0001 12.4586V15.398C46.4188 15.4176 44.9276 15.7655 43.5313 16.4844C42.3363 17.0992 41.6663 17.9137 40.1776 17.9737C38.3201 18.0472 37.3313 16.8126 35.7538 16.1464C33.5926 15.2339 30.8713 15.1617 28.6638 15.9712C27.0988 16.5456 25.8451 17.9333 24.1463 17.9749C22.2788 18.0203 21.5688 16.9719 20.0625 16.2725C17.3375 15.0073 14.0763 15.147 11.4363 16.5456C10.4475 17.0698 9.66127 17.8451 8.47377 17.9602C6.31251 18.1697 5.32626 16.733 3.51876 16.0398C2.40126 15.6124 1.19625 15.4336 0.00125122 15.3993V12.4598C0.293752 11.7348 0.780003 11.4518 1.56 11.3686C4.55251 11.0526 8.29627 12.0581 10.9725 10.5786C13.0975 9.40282 13.2913 7.46279 16.365 7.67957C19.0438 7.86819 19.9438 11.0122 23.0276 11.3477C31.0101 11.4469 39.0288 11.1946 46.9913 11.4751C47.5401 11.6417 47.7764 11.9699 48.0026 12.4598L48.0001 12.4586Z" fill="#9CA3AF"/>
<path d="M15.5375 0.538044C16.3938 0.364128 17.2138 0.79402 17.3363 1.6734C17.395 2.10084 17.4025 3.52647 17.3 3.91839C16.9325 5.33667 14.7688 5.22522 14.5375 3.77265C14.4688 3.3452 14.4838 1.94285 14.5738 1.52275C14.6638 1.10266 15.095 0.628677 15.5375 0.539269V0.538044Z" fill="#9CA3AF"/>
<path d="M8.51 3.65733C8.73625 3.62671 8.925 3.66713 9.13625 3.73694C9.53375 3.86677 10.915 5.18584 11.115 5.56307C11.7838 6.8258 10.4813 8.09711 9.215 7.42471C8.9475 7.28264 7.5775 5.92927 7.4475 5.66595C7.01375 4.78534 7.5175 3.79206 8.50875 3.65733H8.51Z" fill="#9CA3AF"/>
<path d="M23.0425 3.65991C24.1075 3.54968 24.7825 4.49519 24.5175 5.4799C24.4362 5.78364 23.0812 7.15293 22.7737 7.35379C21.6262 8.10457 20.1875 7.04883 20.6737 5.75425C20.885 5.18963 22.415 3.72359 23.0412 3.65868L23.0425 3.65991Z" fill="#9CA3AF"/>
</g>
<defs>
<clipPath id="clip0_869_3311">
<rect width="48" height="29" fill="white" transform="translate(0 0.5)"/>
</clipPath>
</defs>
</svg>
