<svg width="30" height="31" viewBox="0 0 30 31" fill="none" xmlns="http://www.w3.org/2000/svg">
<path d="M19.1602 5.78906L22.5 4.5L23.7305 1.21875C23.7891 0.925781 24.082 0.75 24.375 0.75C24.6094 0.75 24.9023 0.925781 24.9609 1.21875L26.25 4.5L29.5312 5.78906C29.8242 5.84766 30 6.14062 30 6.375C30 6.66797 29.8242 6.96094 29.5312 7.01953L26.25 8.25L24.9609 11.5898C24.9023 11.8242 24.6094 12 24.375 12C24.082 12 23.7891 11.8242 23.7305 11.5898L22.5 8.25L19.1602 7.01953C18.9258 6.96094 18.75 6.66797 18.75 6.375C18.75 6.14062 18.9258 5.84766 19.1602 5.78906ZM12.0117 5.08594L15.0586 11.7656L21.7383 14.8125C22.0898 14.9883 22.3242 15.3398 22.3242 15.6914C22.3242 16.043 22.0898 16.3945 21.7383 16.5117L15.0586 19.6172L12.0117 26.2969C11.8359 26.6484 11.4844 26.8828 11.1328 26.8828C10.7812 26.8828 10.4297 26.6484 10.3125 26.2969L7.20703 19.6172L0.527344 16.5703C0.175781 16.3945 0 16.043 0 15.6914C0 15.3398 0.175781 14.9883 0.527344 14.8125L7.20703 11.7656L10.3125 5.08594C10.4297 4.73438 10.7812 4.5 11.1328 4.5C11.4844 4.5 11.8359 4.73438 12.0117 5.08594ZM22.5 23.25L23.7305 19.9688C23.7891 19.6758 24.082 19.5 24.375 19.5C24.6094 19.5 24.9023 19.6758 24.9609 19.9688L26.25 23.25L29.5312 24.5391C29.8242 24.5977 30 24.8906 30 25.125C30 25.418 29.8242 25.7109 29.5312 25.7695L26.25 27L24.9609 30.3398C24.9023 30.5742 24.6094 30.75 24.375 30.75C24.082 30.75 23.7891 30.5742 23.7305 30.3398L22.5 27L19.1602 25.7695C18.9258 25.7109 18.75 25.418 18.75 25.125C18.75 24.8906 18.9258 24.5977 19.1602 24.5391L22.5 23.25Z" fill="#3A3232" fill-opacity="0.7"/>
</svg>
