<svg width="25" height="25" viewBox="0 0 25 25" fill="none" xmlns="http://www.w3.org/2000/svg">
<path d="M14.2338 6.15625V17.5C14.2338 18.3438 13.5307 19 12.7338 19C11.8901 19 11.2338 18.3438 11.2338 17.5V6.15625L7.76508 9.57812C7.20258 10.1875 6.2182 10.1875 5.6557 9.57812C5.04633 9.01562 5.04633 8.03125 5.6557 7.46875L11.6557 1.46875C12.2182 0.859375 13.2026 0.859375 13.7651 1.46875L19.7651 7.46875C20.3745 8.03125 20.3745 9.01562 19.7651 9.57812C19.2026 10.1875 18.2182 10.1875 17.6557 9.57812L14.2338 6.15625ZM3.73383 17.5H9.73383C9.73383 19.1875 11.0463 20.5 12.7338 20.5C14.3745 20.5 15.7338 19.1875 15.7338 17.5H21.7338C23.3745 17.5 24.7338 18.8594 24.7338 20.5V22C24.7338 23.6875 23.3745 25 21.7338 25H3.73383C2.04633 25 0.733826 23.6875 0.733826 22V20.5C0.733826 18.8594 2.04633 17.5 3.73383 17.5ZM20.9838 22.375C21.5932 22.375 22.1088 21.9062 22.1088 21.25C22.1088 20.6406 21.5932 20.125 20.9838 20.125C20.3276 20.125 19.8588 20.6406 19.8588 21.25C19.8588 21.9062 20.3276 22.375 20.9838 22.375Z" fill="#F7F5F2"/>
</svg>
